<svg xmlns="http://www.w3.org/2000/svg" xml:space="preserve" width="158" height="82" viewBox="0 0 158.8 82" style="image-rendering:optimizeQuality;shape-rendering:geometricPrecision;text-rendering:geometricPrecision"><defs><style type="text/css">
    .fil0 {fill:#009933;fill-rule:nonzero}
   </style></defs><path class="fil0" d="M36.3 58.7l-3.9 16.7-3.9 0 3.2-14-7.6 14-2.2 0-1.3-14.1-3.3 14.1-3.2 0 3.9-16.7 5.9 0 0.8 10.2 5.5-10.2 6.1 0zm25.9-29.7c-3.9 0-7 3.1-7 7 0 3.8 3.1 7 7 7l0 0.1 0 0c0 3.8 3.1 7 7 7 3.9 0 7-3.1 7-7l0-14-14 0zm0-1.7c-3.9 0-7-3.1-7-7 0-3.8 3.1-7 7-7l0-0.1 0 0c0-3.8 3.1-7 7-7 3.9 0 7 3.1 7 7l0 14-14 0zm29.6 0c3.9 0 7-3.1 7-7 0-3.8-3.1-7-7-7l0-0.1 0 0c0-3.8-3.1-7-7-7-3.9 0-7 3.1-7 7l0 14 14 0zm0 1.7c3.9 0 7 3.1 7 7 0 3.8-3.1 7-7 7l0 0.1 0 0c0 3.8-3.1 7-7 7-3.9 0-7-3.1-7-7l0-14 14 0zm-40.7 29.7l-0.7 3.2-7.8 0-0.8 3.4 6.6 0-0.7 3-6.6 0-0.9 3.9 8 0-0.7 3.2-11.9 0 3.9-16.7 11.8 0zm13.8 7.7l-2.1 9.1-1.6 0-0.3-2.3c-1.3 1.6-2.9 2.4-4.8 2.4-1.7 0-3.2-0.6-4.3-1.9-1.1-1.2-1.6-3-1.5-5.3 0.2-2.9 1.1-5.3 2.8-7.2 1.7-1.9 3.7-2.9 6.1-2.9 1.8 0 3.2 0.5 4.2 1.4 1 1 1.7 2.3 1.8 4l-3.6 0.6c-0.2-2-1-3-2.6-3-1 0-1.8 0.4-2.5 1.1-0.7 0.8-1.2 1.8-1.6 3.1-0.4 1.3-0.6 2.4-0.7 3.2-0.1 1 0.1 1.9 0.6 2.5 0.4 0.7 1.2 1 2.3 1 1.6 0 2.8-1 3.4-3l-3.4 0 0.7-3 7 0zm14.5 9l-4 0-0.3-3.7-5.6 0-1.9 3.7-3.6 0 9-16.7 4.6 0 1.7 16.7zm-8.4-6.6l3.9 0-0.6-6.7-3.4 6.7zm30-6l-3.5 0.8c-0.3-1.4-1.2-2.1-2.7-2.1-0.7 0-1.3 0.2-1.7 0.5-0.4 0.3-0.7 0.7-0.7 1.2 0 0.5 0.1 0.8 0.4 1.1 0.3 0.2 0.9 0.5 1.9 0.7 1.3 0.3 2.4 0.7 3.2 1.1 0.8 0.4 1.3 0.9 1.7 1.6 0.4 0.7 0.5 1.5 0.5 2.5-0.1 1.6-0.8 2.9-2 3.9-1.2 1.1-2.9 1.6-5 1.6-1.8 0-3.3-0.4-4.5-1.3-1.2-0.8-1.8-2.1-2-3.8l3.6-0.5c0.3 1.7 1.3 2.5 3.2 2.5 0.9 0 1.5-0.2 2-0.6 0.5-0.4 0.7-0.8 0.8-1.4 0-0.5-0.1-0.9-0.4-1.2-0.3-0.2-1.1-0.5-2.4-0.9-1.1-0.3-2-0.6-2.7-1-0.7-0.4-1.2-0.9-1.5-1.6-0.4-0.7-0.5-1.4-0.5-2.3 0.1-1.4 0.7-2.7 1.8-3.7 1.1-1.1 2.6-1.6 4.5-1.6 3.2 0 5.2 1.5 6 4.4zm15.6-4.1l-0.7 3.2-7.8 0-0.8 3.4 6.6 0-0.7 3-6.6 0-0.9 3.9 8 0-0.7 3.2-11.9 0 3.9-16.7 11.8 0zm15.2 0l-3.9 16.7-3.1 0-4.1-12.1c-0.1 0.8-0.5 2.7-1.2 5.7l-1.5 6.4-3.1 0 3.9-16.7 4.2 0 3.4 10.2c0-0.3 0.4-2 1-4.9l1.2-5.3 3.1 0zm12.9 16.7l-4 0-0.3-3.7-5.6 0-1.9 3.7-3.6 0 9-16.7 4.6 0 1.7 16.7zm-8.4-6.6l3.9 0-0.6-6.7-3.4 6.7z"/></svg>